<svg width="100" height="24" viewBox="0 0 100 24" fill="none" xmlns="http://www.w3.org/2000/svg">
<path d="M30.2461 0C32.5564 3.79745e-05 34.6402 0.507906 36.4971 1.52344C38.3755 2.53903 39.8443 3.93325 40.9023 5.70508C41.9818 7.47689 42.5215 9.46504 42.5215 11.6689C42.5215 13.8946 41.982 15.9047 40.9023 17.6982C39.8443 19.4917 38.3756 20.9071 36.4971 21.9443C34.6402 22.9815 32.5564 23.5 30.2461 23.5C27.9358 23.5 25.8414 22.992 23.9629 21.9766C22.106 20.9394 20.6373 19.5239 19.5576 17.7305C18.4996 15.9153 17.9697 13.8946 17.9697 11.6689C17.9697 9.46489 18.4996 7.47698 19.5576 5.70508C20.6373 3.93316 22.1059 2.53906 23.9629 1.52344C25.8414 0.507988 27.9358 0 30.2461 0ZM4.75 0.589844C5.40027 0.590092 5.92773 1.11774 5.92773 1.76855V16.4873C5.92789 17.4636 6.71871 18.2549 7.69434 18.2549H15.6064C16.2567 18.2551 16.7841 18.7828 16.7842 19.4336V22.1328C16.7842 22.7836 16.2567 23.3113 15.6064 23.3115H4.71094C2.10915 23.3113 0 21.2005 0 18.5967V1.76855C0 1.11762 0.527299 0.589902 1.17773 0.589844H4.75ZM50.9785 0.356445C51.6289 0.356445 52.1561 0.884343 52.1562 1.53516V6.87012C52.1562 8.26567 53.9143 8.87919 54.7812 7.78613L59.9678 1.24902C60.4146 0.68565 61.0938 0.356451 61.8125 0.356445H65.1631C66.1378 0.356445 66.6903 1.47413 66.0996 2.25L60.1611 10.0508C59.6884 10.6717 59.6783 11.5295 60.1367 12.1611L66.7021 21.208C67.267 21.9871 66.7109 23.0789 65.749 23.0791H62.126C61.3947 23.079 60.7046 22.7384 60.2588 22.1582L56.0732 16.7109C55.4324 15.877 54.3401 15.5304 53.3359 15.8418C52.6346 16.0594 52.1562 16.7085 52.1562 17.4434V21.9004C52.1562 22.5513 51.629 23.0791 50.9785 23.0791H47.4072C46.7568 23.0791 46.2296 22.5513 46.2295 21.9004V1.53516C46.2297 0.884342 46.7569 0.356445 47.4072 0.356445H50.9785ZM74.7334 0.356445C75.3838 0.356445 75.9109 0.884343 75.9111 1.53516V21.9004C75.9111 22.5513 75.3838 23.0791 74.7334 23.0791H71.1621C70.5117 23.0791 69.9845 22.5513 69.9844 21.9004V1.53516C69.9846 0.884342 70.5117 0.356445 71.1621 0.356445H74.7334ZM98.8223 0.356445C99.4726 0.356508 99.9998 0.884382 100 1.53516V4.71484C100 5.36577 99.4727 5.89349 98.8223 5.89355H93.8242C93.1738 5.89355 92.6466 6.42135 92.6465 7.07227V21.9004C92.6464 22.5512 92.119 23.0789 91.4688 23.0791H87.8965C87.2461 23.079 86.7188 22.5512 86.7188 21.9004V7.07227C86.7187 6.42135 86.1915 5.89355 85.541 5.89355H80.0684C79.4181 5.89329 78.8906 5.36565 78.8906 4.71484V1.53516C78.8908 0.884504 79.4182 0.356706 80.0684 0.356445H98.8223ZM30.3271 5.30371C26.5871 5.30396 23.5557 8.20692 23.5557 11.7871C23.5558 15.3672 26.5872 18.2693 30.3271 18.2695C34.0674 18.2695 37.0995 15.3673 37.0996 11.7871C37.0996 8.20677 34.0674 5.30371 30.3271 5.30371Z" fill="white"/>
</svg>
