<svg width="22" height="22" viewBox="0 0 22 22" fill="none" xmlns="http://www.w3.org/2000/svg">
<path d="M19.7572 14.512C18.9759 13.1296 18.561 11.1454 18.561 8.77778C18.561 6.71498 17.7644 4.73667 16.3465 3.27806C14.9286 1.81944 13.0055 1 11.0002 1C8.99499 1 7.07188 1.81944 5.65396 3.27806C4.23605 4.73667 3.43947 6.71498 3.43947 8.77778C3.43947 11.1463 3.02633 13.1296 2.24505 14.512C2.08562 14.794 2.00112 15.1141 2.00001 15.4403C1.99891 15.7665 2.08124 16.0873 2.23875 16.3704C2.39526 16.6536 2.62242 16.8888 2.89679 17.0515C3.17116 17.2143 3.48279 17.2988 3.7995 17.2963H18.201C18.5172 17.2983 18.8283 17.2136 19.1021 17.0508C19.376 16.8881 19.6027 16.6532 19.759 16.3704C19.9172 16.0877 20.0003 15.7671 20 15.441C19.9997 15.1148 19.916 14.7944 19.7572 14.512ZM4.39896 15.0741C5.19554 13.4074 5.59969 11.2907 5.59969 8.77778C5.59969 7.30435 6.16867 5.89128 7.18147 4.84941C8.19427 3.80754 9.56792 3.22222 11.0002 3.22222C12.4325 3.22222 13.8062 3.80754 14.819 4.84941C15.8318 5.89128 16.4008 7.30435 16.4008 8.77778C16.4008 11.2898 16.804 13.4074 17.6006 15.0741H4.39896ZM14.9606 19.8889C14.9606 20.1836 14.8468 20.4662 14.6443 20.6746C14.4417 20.8829 14.167 21 13.8805 21H8.11994C7.83348 21 7.55875 20.8829 7.35619 20.6746C7.15363 20.4662 7.03983 20.1836 7.03983 19.8889C7.03983 19.5942 7.15363 19.3116 7.35619 19.1032C7.55875 18.8948 7.83348 18.7778 8.11994 18.7778H13.8805C14.167 18.7778 14.4417 18.8948 14.6443 19.1032C14.8468 19.3116 14.9606 19.5942 14.9606 19.8889Z" fill="currentColor"/>
</svg>
