<svg width="16" height="16" viewBox="0 0 16 16" fill="none" xmlns="http://www.w3.org/2000/svg">
<path d="M12.3315 14.8982C11.4915 15.6898 10.5744 15.5648 9.69156 15.1898C8.7573 14.8065 7.90018 14.7899 6.91449 15.1898C5.68024 15.7064 5.02883 15.5564 4.29171 14.8982C0.108962 10.707 0.726088 4.32452 5.47453 4.09121C6.63164 4.14954 7.43733 4.7078 8.11446 4.7578C9.12586 4.55782 10.0944 3.98289 11.1744 4.05788C12.4686 4.15787 13.4457 4.65781 14.0886 5.55769C11.4144 7.11583 12.0486 10.5404 14.5 11.4986C14.0114 12.7485 13.3772 13.99 12.3229 14.9065L12.3315 14.8982ZM8.02875 4.04122C7.90018 2.18312 9.45157 0.649981 11.2344 0.5C11.4829 2.64973 9.22871 4.24953 8.02875 4.04122Z" fill="black"/>
</svg>
