<svg width="32" height="32" viewBox="0 0 32 32" fill="none" xmlns="http://www.w3.org/2000/svg">
<g clip-path="url(#clip0_6800_59492)">
<path d="M3 10H29V25C29 27.2091 27.2091 29 25 29H7C4.79086 29 3 27.2091 3 25V10Z" fill="#E8E8E8"/>
<path d="M3 10C3 7.79086 4.79086 6 7 6H25C27.2091 6 29 7.79086 29 10V13H3V10Z" fill="url(#paint0_linear_6800_59492)"/>
<path d="M9.6 8.4C8.71683 8.4 8 7.68449 8 6.8V3.6C8 2.71551 8.71551 2 9.6 2C10.4845 2 11.2 2.71551 11.2 3.6V6.8C11.2 7.68449 10.4845 8.4 9.6 8.4Z" fill="#3D4855"/>
<path d="M22.3998 8.4C21.5166 8.4 20.7998 7.68449 20.7998 6.8V3.6C20.7998 2.71551 21.5153 2 22.3998 2C23.2843 2 23.9998 2.71551 23.9998 3.6V6.8C23.9998 7.68449 23.2843 8.4 22.3998 8.4Z" fill="#3D4855"/>
<path d="M10.8 18.9915C10.8 21.4774 12.8904 22.8018 14.4202 23.9877C14.96 24.4059 15.48 24.8 16 24.8C16.52 24.8 17.04 24.4064 17.5798 23.9872C19.1101 22.8023 21.2 21.4774 21.2 18.992C21.2 16.5067 18.34 14.7426 16 17.1329C13.66 14.7426 10.8 16.5057 10.8 18.9915Z" fill="#2BB3AD"/>
</g>
<defs>
<linearGradient id="paint0_linear_6800_59492" x1="16" y1="6" x2="16" y2="13" gradientUnits="userSpaceOnUse">
<stop stop-color="#AACBCA"/>
<stop offset="1" stop-color="#59BBB6"/>
</linearGradient>
<clipPath id="clip0_6800_59492">
<rect width="32" height="32" fill="white"/>
</clipPath>
</defs>
</svg>
