<svg width="22" height="22" viewBox="0 0 22 22" fill="none" xmlns="http://www.w3.org/2000/svg">
<path d="M20 11C20 11.2931 19.8862 11.5743 19.6837 11.7815C19.4811 11.9888 19.2064 12.1053 18.92 12.1053H3.08C2.79357 12.1053 2.51886 11.9888 2.31632 11.7815C2.11379 11.5743 2 11.2931 2 11C2 10.7069 2.11379 10.4257 2.31632 10.2185C2.51886 10.0112 2.79357 9.89474 3.08 9.89474H18.92C19.2064 9.89474 19.4811 10.0112 19.6837 10.2185C19.8862 10.4257 20 10.7069 20 11ZM3.08 6.21053H18.92C19.2064 6.21053 19.4811 6.09408 19.6837 5.8868C19.8862 5.67953 20 5.3984 20 5.10526C20 4.81213 19.8862 4.531 19.6837 4.32372C19.4811 4.11645 19.2064 4 18.92 4H3.08C2.79357 4 2.51886 4.11645 2.31632 4.32372C2.11379 4.531 2 4.81213 2 5.10526C2 5.3984 2.11379 5.67953 2.31632 5.8868C2.51886 6.09408 2.79357 6.21053 3.08 6.21053ZM18.92 15.7895H3.08C2.79357 15.7895 2.51886 15.9059 2.31632 16.1132C2.11379 16.3205 2 16.6016 2 16.8947C2 17.1879 2.11379 17.469 2.31632 17.6763C2.51886 17.8836 2.79357 18 3.08 18H18.92C19.2064 18 19.4811 17.8836 19.6837 17.6763C19.8862 17.469 20 17.1879 20 16.8947C20 16.6016 19.8862 16.3205 19.6837 16.1132C19.4811 15.9059 19.2064 15.7895 18.92 15.7895Z" fill="currentColor"/>
</svg>
