<svg width="22" height="22" viewBox="0 0 22 22" fill="none" xmlns="http://www.w3.org/2000/svg">
<path fill-rule="evenodd" clip-rule="evenodd" d="M11 0C12.3131 0 13.614 0.259299 14.8271 0.762695C16.0401 1.26609 17.1429 2.00357 18.0713 2.93359C18.9998 3.86381 19.7367 4.96918 20.2393 6.18457C20.7416 7.39972 21 8.70234 21 10.0176V16.8926C21 18.247 20.4628 19.5462 19.5068 20.5039C18.5509 21.4615 17.2542 21.9999 15.9023 22H11C10.3503 22 9.82329 21.4721 9.82324 20.8213C9.82324 20.1704 10.3503 19.6426 11 19.6426H15.9023C16.6302 19.6425 17.3281 19.3525 17.8428 18.8369C18.0792 18.6001 18.2643 18.3228 18.3994 18.0234C18.2232 18.0541 18.0436 18.0713 17.8623 18.0713H16.8818C16.05 18.0712 15.2523 17.7396 14.6641 17.1504C14.0759 16.5611 13.7452 15.7621 13.7451 14.9287V11.9824C13.7451 11.1489 14.0758 10.3491 14.6641 9.75977C15.2523 9.17054 16.05 8.83897 16.8818 8.83887H18.5547C18.4614 8.23863 18.2976 7.64976 18.0645 7.08594C17.6802 6.15669 17.1172 5.31183 16.4072 4.60059C15.6973 3.88944 14.8543 3.32537 13.9268 2.94043C12.999 2.55547 12.0042 2.35742 11 2.35742C9.99582 2.35742 9.00099 2.55547 8.07324 2.94043C7.14573 3.32537 6.30271 3.88944 5.59277 4.60059C4.8828 5.31183 4.31983 6.15668 3.93555 7.08594C3.70242 7.64976 3.53865 8.23863 3.44531 8.83887H5.11816C5.95 8.83897 6.7477 9.17054 7.33594 9.75977C7.92425 10.3491 8.25488 11.1489 8.25488 11.9824V14.9287C8.2548 15.7621 7.92412 16.5611 7.33594 17.1504C6.7477 17.7396 5.95002 18.0712 5.11816 18.0713H4.1377C3.30569 18.0713 2.50728 17.7397 1.91895 17.1504C1.33085 16.5611 1.00009 15.762 1 14.9287V10.0176C1.00004 8.70234 1.25838 7.39972 1.76074 6.18457C2.26328 4.96918 3.00015 3.86381 3.92871 2.93359C4.85713 2.00357 5.95987 1.26609 7.17285 0.762695C8.38605 0.259299 9.68685 0 11 0ZM3.35352 14.9287C3.3536 15.1369 3.43615 15.3362 3.58301 15.4834C3.73009 15.6307 3.92972 15.7139 4.1377 15.7139H5.11816C5.326 15.7138 5.52489 15.6306 5.67188 15.4834C5.81881 15.3361 5.90226 15.1369 5.90234 14.9287V11.9824C5.90234 11.7741 5.81893 11.5741 5.67188 11.4268C5.5249 11.2796 5.32597 11.1964 5.11816 11.1963H3.35352V14.9287ZM16.8818 11.1963C16.674 11.1964 16.4751 11.2796 16.3281 11.4268C16.1811 11.5741 16.0977 11.7741 16.0977 11.9824V14.9287C16.0977 15.1369 16.1812 15.3361 16.3281 15.4834C16.4751 15.6306 16.674 15.7138 16.8818 15.7139H17.8623C18.0703 15.7139 18.2699 15.6307 18.417 15.4834C18.5639 15.3362 18.6464 15.1369 18.6465 14.9287V11.1963H16.8818Z" fill="#8D8C8F"/>
</svg>
