<svg width="22" height="22" viewBox="0 0 22 22" fill="none" xmlns="http://www.w3.org/2000/svg">
<path d="M11 0C8.82441 0 6.69767 0.645139 4.88873 1.85383C3.07979 3.06253 1.66989 4.78049 0.83733 6.79048C0.00476612 8.80047 -0.213071 11.0122 0.211367 13.146C0.635804 15.2798 1.68345 17.2398 3.22183 18.7782C4.76021 20.3165 6.72022 21.3642 8.85401 21.7886C10.9878 22.2131 13.1995 21.9952 15.2095 21.1627C17.2195 20.3301 18.9375 18.9202 20.1462 17.1113C21.3549 15.3023 22 13.1756 22 11C21.9971 8.08351 20.8372 5.28731 18.775 3.22504C16.7127 1.16277 13.9165 0.00291212 11 0ZM11 19.8C9.25953 19.8 7.55814 19.2839 6.11099 18.3169C4.66383 17.35 3.53592 15.9756 2.86986 14.3676C2.20381 12.7596 2.02954 10.9902 2.36909 9.2832C2.70864 7.57617 3.54676 6.00816 4.77746 4.77746C6.00817 3.54676 7.57618 2.70864 9.28321 2.36909C10.9902 2.02954 12.7596 2.20381 14.3676 2.86986C15.9756 3.53591 17.35 4.66383 18.3169 6.11098C19.2839 7.55813 19.8 9.25952 19.8 11C19.7971 13.333 18.869 15.5696 17.2193 17.2193C15.5696 18.869 13.333 19.7971 11 19.8ZM11 10.45C10.7083 10.45 10.4285 10.5659 10.2222 10.7722C10.0159 10.9785 9.9 11.2583 9.9 11.55V14.85C9.9 15.1417 10.0159 15.4215 10.2222 15.6278C10.4285 15.8341 10.7083 15.95 11 15.95C11.2917 15.95 11.5715 15.8341 11.7778 15.6278C11.9841 15.4215 12.1 15.1417 12.1 14.85V11.55C12.1 11.2583 11.9841 10.9785 11.7778 10.7722C11.5715 10.5659 11.2917 10.45 11 10.45ZM11 6.05C10.7281 6.05 10.4622 6.13064 10.2361 6.28173C10.01 6.43281 9.83374 6.64756 9.72967 6.89881C9.6256 7.15006 9.59837 7.42652 9.65142 7.69325C9.70448 7.95997 9.83543 8.20497 10.0277 8.39727C10.22 8.58957 10.465 8.72052 10.7318 8.77358C10.9985 8.82663 11.2749 8.7994 11.5262 8.69533C11.7774 8.59126 11.9922 8.41502 12.1433 8.18891C12.2944 7.96279 12.375 7.69695 12.375 7.425C12.375 7.06033 12.2301 6.71059 11.9723 6.45273C11.7144 6.19486 11.3647 6.05 11 6.05Z" fill="currentColor"/>
</svg>
