<svg width="22" height="22" viewBox="0 0 22 22" fill="none" xmlns="http://www.w3.org/2000/svg">
<path d="M11.001 8C10.2054 8 9.44229 8.31607 8.87968 8.87868C8.31707 9.44129 8.001 10.2044 8.001 11C8.001 11.7956 8.31707 12.5587 8.87968 13.1213C9.44229 13.6839 10.2054 14 11.001 14C11.7966 14 12.5597 13.6839 13.1223 13.1213C13.6849 12.5587 14.001 11.7956 14.001 11C14.001 10.2044 13.6849 9.44129 13.1223 8.87868C12.5597 8.31607 11.7966 8 11.001 8ZM11.001 6C12.3271 6 13.5989 6.52678 14.5365 7.46447C15.4742 8.40215 16.001 9.67392 16.001 11C16.001 12.3261 15.4742 13.5979 14.5365 14.5355C13.5989 15.4732 12.3271 16 11.001 16C9.67492 16 8.40315 15.4732 7.46547 14.5355C6.52778 13.5979 6.001 12.3261 6.001 11C6.001 9.67392 6.52778 8.40215 7.46547 7.46447C8.40315 6.52678 9.67492 6 11.001 6ZM17.501 5.75C17.501 6.08152 17.3693 6.39946 17.1349 6.63388C16.9005 6.8683 16.5825 7 16.251 7C15.9195 7 15.6015 6.8683 15.3671 6.63388C15.1327 6.39946 15.001 6.08152 15.001 5.75C15.001 5.41848 15.1327 5.10054 15.3671 4.86612C15.6015 4.6317 15.9195 4.5 16.251 4.5C16.5825 4.5 16.9005 4.6317 17.1349 4.86612C17.3693 5.10054 17.501 5.41848 17.501 5.75ZM11.001 3C8.527 3 8.123 3.007 6.972 3.058C6.188 3.095 5.662 3.2 5.174 3.39C4.76583 3.54037 4.39672 3.78063 4.094 4.093C3.78127 4.39562 3.54066 4.76474 3.39 5.173C3.2 5.663 3.095 6.188 3.059 6.971C3.007 8.075 3 8.461 3 11C3 13.475 3.007 13.878 3.058 15.029C3.095 15.812 3.2 16.339 3.389 16.826C3.559 17.261 3.759 17.574 4.091 17.906C4.428 18.242 4.741 18.443 5.171 18.609C5.665 18.8 6.191 18.906 6.971 18.942C8.075 18.994 8.461 19 11 19C13.475 19 13.878 18.993 15.029 18.942C15.811 18.905 16.337 18.8 16.826 18.611C17.2342 18.4606 17.6033 18.2204 17.906 17.908C18.243 17.572 18.444 17.259 18.61 16.828C18.8 16.336 18.906 15.81 18.942 15.028C18.994 13.925 19 13.538 19 11C19 8.526 18.993 8.122 18.942 6.971C18.905 6.189 18.799 5.661 18.61 5.173C18.4596 4.76483 18.2194 4.39572 17.907 4.093C17.6044 3.78027 17.2353 3.53966 16.827 3.389C16.337 3.199 15.811 3.094 15.029 3.058C13.926 3.006 13.54 3 11 3M11 1C13.717 1 14.056 1.01 15.123 1.06C16.187 1.11 16.913 1.277 17.55 1.525C18.21 1.779 18.766 2.123 19.322 2.678C19.8307 3.17773 20.2242 3.78247 20.475 4.45C20.722 5.087 20.89 5.813 20.94 6.878C20.987 7.944 21 8.283 21 11C21 13.717 20.99 14.056 20.94 15.122C20.89 16.188 20.722 16.912 20.475 17.55C20.2242 18.2175 19.8307 18.8223 19.322 19.322C18.8223 19.8307 18.2175 20.2242 17.55 20.475C16.913 20.722 16.187 20.89 15.123 20.94C14.056 20.987 13.717 21 11 21C8.283 21 7.944 20.99 6.877 20.94C5.813 20.89 5.088 20.722 4.45 20.475C3.78247 20.2242 3.17773 19.8307 2.678 19.322C2.16931 18.8223 1.77582 18.2175 1.525 17.55C1.277 16.913 1.11 16.187 1.06 15.122C1.012 14.056 1 13.717 1 11C1 8.283 1.01 7.944 1.06 6.878C1.11 5.812 1.277 5.088 1.525 4.45C1.77582 3.78247 2.16931 3.17773 2.678 2.678C3.17773 2.16931 3.78247 1.77582 4.45 1.525C5.087 1.277 5.812 1.11 6.877 1.06C7.945 1.013 8.284 1 11.001 1" fill="currentColor"/>
</svg>
