<svg width="60" height="14" viewBox="0 0 60 14" fill="none" xmlns="http://www.w3.org/2000/svg">
<path d="M18.1475 0C19.5337 1.09812e-05 20.7843 0.302217 21.8984 0.907227C23.0255 1.51224 23.9062 2.34295 24.541 3.39844C25.1888 4.45405 25.5127 5.63907 25.5127 6.95215C25.5126 8.27794 25.1887 9.47556 24.541 10.5439C23.9062 11.6122 23.0254 12.4554 21.8984 13.0732C20.7843 13.6912 19.5337 14 18.1475 14C16.7615 14 15.5049 13.6976 14.3779 13.0928C13.2637 12.4748 12.3822 11.631 11.7344 10.5625C11.0997 9.4813 10.7823 8.27786 10.7822 6.95215C10.7822 5.63907 11.0995 4.45405 11.7344 3.39844C12.3822 2.34288 13.2638 1.51226 14.3779 0.907227C15.5049 0.302402 16.7615 1.66597e-05 18.1475 0ZM2.84961 0.351562C3.2399 0.351562 3.55664 0.665899 3.55664 1.05371V9.82227C3.55676 10.4038 4.03095 10.8749 4.61621 10.875H9.36328C9.75344 10.875 10.0701 11.1895 10.0703 11.5771V13.1855C10.0703 13.5734 9.75357 13.8877 9.36328 13.8877H2.82715C1.26603 13.8877 6.63719e-05 12.6303 0 11.0791V1.05371C0 0.665899 0.316741 0.351562 0.707031 0.351562H2.84961ZM30.5869 0.212891C30.9772 0.212891 31.2939 0.527227 31.2939 0.915039V4.09277C31.2939 4.92416 32.349 5.28986 32.8691 4.63867L35.9805 0.744141C36.2486 0.408511 36.6566 0.212891 37.0879 0.212891H39.0977C39.6825 0.212891 40.0146 0.878602 39.6602 1.34082L36.0967 5.9873C35.813 6.35725 35.807 6.86879 36.082 7.24512L40.0215 12.6348C40.3601 13.0989 40.0263 13.749 39.4492 13.749H37.2754C36.8367 13.7489 36.4227 13.5467 36.1553 13.2012L33.6436 9.95508C33.2591 9.45845 32.6043 9.25213 32.002 9.4375C31.5811 9.56711 31.294 9.95378 31.2939 10.3916V13.0469C31.2939 13.4347 30.9772 13.749 30.5869 13.749H28.4443C28.054 13.749 27.7373 13.4347 27.7373 13.0469V0.915039C27.7373 0.527227 28.054 0.212891 28.4443 0.212891H30.5869ZM44.8398 0.212891C45.2301 0.212891 45.5469 0.527227 45.5469 0.915039V13.0469C45.5469 13.4347 45.2301 13.749 44.8398 13.749H42.6973C42.307 13.749 41.9902 13.4347 41.9902 13.0469V0.915039C41.9902 0.527227 42.307 0.212891 42.6973 0.212891H44.8398ZM59.293 0.212891C59.6833 0.212891 60 0.527227 60 0.915039V2.80859C60 3.19641 59.6833 3.51074 59.293 3.51074H56.2939C55.904 3.51098 55.5881 3.82543 55.5879 4.21289V13.0469C55.5879 13.4347 55.2711 13.749 54.8809 13.749H52.7383C52.348 13.749 52.0312 13.4347 52.0312 13.0469V4.21289C52.031 3.82528 51.7144 3.51074 51.3242 3.51074H48.041C47.6509 3.51059 47.335 3.19631 47.335 2.80859V0.915039C47.335 0.527322 47.6509 0.213045 48.041 0.212891H59.293ZM18.1963 3.16016C15.9524 3.1603 14.1331 4.88883 14.1328 7.02148C14.1328 9.15436 15.9522 10.8836 18.1963 10.8838C20.4405 10.8838 22.2598 9.15445 22.2598 7.02148C22.2595 4.88874 20.4403 3.16016 18.1963 3.16016Z" fill="currentColor"/>
</svg>
