<svg width="20" height="20" viewBox="0 0 20 20" fill="none" xmlns="http://www.w3.org/2000/svg">
<path d="M14.8151 17.9823V16.2734H12.9627C12.3492 16.2733 11.8516 15.777 11.8516 15.1648C11.8517 14.5527 12.3492 14.0563 12.9627 14.0561H14.8151V12.3481C14.8151 11.7358 15.3126 11.2395 15.9262 11.2395C16.5397 11.2396 17.0373 11.7359 17.0373 12.3481V14.0561H18.8889C19.5025 14.0561 19.9999 14.5526 20 15.1648C20 15.7771 19.5025 16.2734 18.8889 16.2734H17.0373V17.9823C17.0373 18.5945 16.5397 19.0908 15.9262 19.0909C15.3126 19.0909 14.8151 18.5946 14.8151 17.9823ZM0 15.1648V3.89554C0.000113699 3.08582 0.338549 2.32032 0.922743 1.76486C1.50521 1.21103 2.28506 0.909119 3.08681 0.909119H6.96788L7.15451 0.914315C7.58905 0.939733 8.01544 1.05424 8.40451 1.25211C8.79381 1.45011 9.13754 1.72747 9.40972 2.068L9.5217 2.21784L9.52257 2.21871L10.3238 3.36373L10.3845 3.43909C10.4508 3.51221 10.533 3.57628 10.6293 3.6253C10.758 3.69072 10.9049 3.72663 11.0564 3.72664H16.9132C17.7149 3.72664 18.4948 4.02855 19.0773 4.58238C19.6614 5.1379 20 5.90331 20 6.71306V10.4695C20 11.0818 19.5025 11.5781 18.8889 11.5781C18.2752 11.5781 17.7778 11.0818 17.7778 10.4695V6.71306C17.7777 6.52673 17.7 6.33617 17.5434 6.18732C17.385 6.03693 17.159 5.94394 16.9132 5.94394H11.0564V5.94307C10.5581 5.94306 10.0651 5.8269 9.62066 5.60095C9.17586 5.37474 8.79065 5.0444 8.50347 4.63521L8.5026 4.63435L7.70052 3.48846V3.48759C7.6269 3.38321 7.52284 3.29278 7.39497 3.22775C7.2663 3.16235 7.1194 3.12639 6.96788 3.12641H3.08681C2.84085 3.12641 2.615 3.2201 2.4566 3.37066C2.30012 3.51945 2.22234 3.70929 2.22222 3.89554V15.1648C2.22222 15.3511 2.3 15.5416 2.4566 15.6905C2.615 15.841 2.8409 15.9348 3.08681 15.9348H10C10.6137 15.9348 11.1111 16.4311 11.1111 17.0434C11.111 17.6556 10.6136 18.1521 10 18.1521H3.08681C2.28505 18.1521 1.50521 17.8493 0.922743 17.2954C0.338652 16.7399 0 15.9745 0 15.1648Z" fill="currentColor"/>
</svg>
