<svg width="22" height="22" viewBox="0 0 22 22" fill="none" xmlns="http://www.w3.org/2000/svg">
<path d="M19.3659 11.6599C19.2027 11.4774 19.1127 11.2429 19.1127 11C19.1127 10.7571 19.2027 10.5226 19.3659 10.3401L20.6688 8.90029C20.8123 8.74298 20.9015 8.54504 20.9234 8.33487C20.9454 8.1247 20.899 7.91311 20.7909 7.73044L18.7552 4.27092C18.6482 4.08846 18.4853 3.94384 18.2898 3.85766C18.0942 3.77148 17.8759 3.74814 17.6661 3.79098L15.7525 4.17093C15.509 4.22035 15.2555 4.18052 15.0398 4.05894C14.8242 3.93737 14.6613 3.74247 14.5819 3.51102L13.961 1.68127C13.8927 1.48267 13.7626 1.31018 13.5891 1.18818C13.4156 1.06617 13.2074 1.00082 12.994 1.00136H8.92255C8.70058 0.989979 8.48093 1.05028 8.29713 1.17305C8.11333 1.29582 7.9755 1.47431 7.90468 1.68127L7.33467 3.51102C7.25527 3.74247 7.09239 3.93737 6.87674 4.05894C6.6611 4.18052 6.40761 4.22035 6.16412 4.17093L4.19963 3.79098C4.00068 3.76336 3.79787 3.7942 3.61674 3.87961C3.43561 3.96501 3.28426 4.10117 3.18176 4.27092L1.14601 7.73044C1.03523 7.91107 0.985417 8.12148 1.0037 8.33159C1.02198 8.5417 1.10742 8.74075 1.2478 8.90029L2.5405 10.3401C2.70368 10.5226 2.79368 10.7571 2.79368 11C2.79368 11.2429 2.70368 11.4774 2.5405 11.6599L1.2478 13.0997C1.10742 13.2593 1.02198 13.4583 1.0037 13.6684C0.985417 13.8785 1.03523 14.0889 1.14601 14.2696L3.18176 17.7291C3.28873 17.9115 3.45161 18.0562 3.64718 18.1423C3.84275 18.2285 4.06102 18.2519 4.27088 18.209L6.18447 17.8291C6.42797 17.7796 6.68145 17.8195 6.8971 17.9411C7.11274 18.0626 7.27563 18.2575 7.35503 18.489L7.97593 20.3187C8.04675 20.5257 8.18459 20.7042 8.36838 20.827C8.55218 20.9497 8.77183 21.01 8.9938 20.9986H13.0653C13.2787 20.9992 13.4868 20.9338 13.6604 20.8118C13.8339 20.6898 13.964 20.5173 14.0323 20.3187L14.6532 18.489C14.7326 18.2575 14.8954 18.0626 15.1111 17.9411C15.3267 17.8195 15.5802 17.7796 15.8237 17.8291L17.7373 18.209C17.9472 18.2519 18.1654 18.2285 18.361 18.1423C18.5566 18.0562 18.7195 17.9115 18.8264 17.7291L20.8622 14.2696C20.9702 14.0869 21.0166 13.8753 20.9947 13.6651C20.9727 13.455 20.8836 13.257 20.74 13.0997L19.3659 11.6599ZM17.8493 12.9997L18.6636 13.8996L17.3607 16.1193L16.1596 15.8793C15.4265 15.7321 14.6639 15.8545 14.0166 16.2231C13.3692 16.5917 12.8822 17.181 12.648 17.8791L12.2612 18.9989H9.65541L9.28898 17.8591C9.05472 17.161 8.5677 16.5717 7.92036 16.2031C7.27301 15.8345 6.51042 15.7121 5.77733 15.8593L4.57624 16.0993L3.25301 13.8896L4.0673 12.9897C4.56805 12.4398 4.84489 11.7278 4.84489 10.99C4.84489 10.2522 4.56805 9.54022 4.0673 8.99027L3.25301 8.0904L4.55588 5.89069L5.75697 6.13066C6.49006 6.27786 7.25266 6.15554 7.9 5.78691C8.54734 5.41828 9.03436 4.829 9.26862 4.13093L9.65541 3.00109H12.2612L12.648 4.14093C12.8822 4.839 13.3692 5.42827 14.0166 5.79691C14.6639 6.16554 15.4265 6.28786 16.1596 6.14066L17.3607 5.90069L18.6636 8.12039L17.8493 9.02027C17.3541 9.56895 17.0808 10.2768 17.0808 11.01C17.0808 11.7432 17.3541 12.451 17.8493 12.9997ZM10.9583 7.00054C10.153 7.00054 9.36584 7.23511 8.69629 7.67457C8.02674 8.11404 7.50489 8.73867 7.19673 9.46947C6.88857 10.2003 6.80794 11.0044 6.96504 11.7803C7.12214 12.5561 7.50991 13.2687 8.07931 13.828C8.64872 14.3874 9.37419 14.7683 10.164 14.9226C10.9538 15.0769 11.7724 14.9977 12.5164 14.695C13.2603 14.3923 13.8962 13.8797 14.3436 13.222C14.791 12.5643 15.0298 11.791 15.0298 11C15.0298 9.93928 14.6008 8.922 13.8373 8.17196C13.0737 7.42191 12.0381 7.00054 10.9583 7.00054ZM10.9583 12.9997C10.5557 12.9997 10.1621 12.8824 9.82729 12.6627C9.49251 12.443 9.23159 12.1307 9.07751 11.7653C8.92343 11.3999 8.88311 10.9978 8.96166 10.6099C9.04021 10.222 9.2341 9.86565 9.5188 9.58598C9.8035 9.30631 10.1662 9.11586 10.5611 9.0387C10.956 8.96154 11.3653 9.00114 11.7373 9.15249C12.1093 9.30385 12.4273 9.56016 12.6509 9.88901C12.8746 10.2179 12.994 10.6045 12.994 11C12.994 11.5304 12.7795 12.039 12.3978 12.414C12.016 12.789 11.4982 12.9997 10.9583 12.9997Z" fill="#8D8C8F"/>
</svg>
